<svg fill="none" height="20" viewBox="0 0 18 20" width="18" xmlns="http://www.w3.org/2000/svg">
    <path
        d="M16.4432 2.16266L11.369 10.015C11.1795 10.3093 11.0798 10.6524 11.082 11.0023V15.7895C11.0806 16.0161 11.0167 16.2379 10.8971 16.4304C10.7776 16.6228 10.6071 16.7785 10.4046 16.8801L6.74254 18.7055C6.68764 18.7359 6.62562 18.7512 6.56285 18.7499C6.50008 18.7486 6.43878 18.7308 6.38515 18.6981C6.33152 18.6655 6.28749 18.6192 6.25751 18.5641C6.22753 18.5089 6.21268 18.4468 6.21445 18.384V11.0023C6.21667 10.6524 6.11695 10.3093 5.92745 10.015L0.85325 2.16266C0.77746 2.01128 0.74236 1.84279 0.75139 1.67375C0.76042 1.5047 0.813279 1.34091 0.904759 1.19847C0.996249 1.05603 1.12321 0.939837 1.27319 0.861317C1.42317 0.782797 1.59099 0.744637 1.76017 0.750607H15.5363C15.7054 0.744637 15.8733 0.782797 16.0232 0.861317C16.1732 0.939837 16.3002 1.05603 16.3917 1.19847C16.4832 1.34091 16.536 1.5047 16.545 1.67375C16.5541 1.84279 16.519 2.01128 16.4432 2.16266Z"
        stroke="#606060" stroke-linecap="round" stroke-miterlimit="10" stroke-width="1.5" />
</svg>
