<svg width="20" height="20" viewBox="0 0 20 20" fill="none" xmlns="http://www.w3.org/2000/svg">
<path d="M10 14.1667C9.07501 14.1667 8.33334 13.4167 8.33334 12.5C8.33334 11.575 9.07501 10.8334 10 10.8334C10.442 10.8334 10.866 11.009 11.1785 11.3215C11.4911 11.6341 11.6667 12.058 11.6667 12.5C11.6667 12.9421 11.4911 13.366 11.1785 13.6786C10.866 13.9911 10.442 14.1667 10 14.1667ZM15 16.6667V8.33337H5.00001V16.6667H15ZM15 6.66671C15.442 6.66671 15.866 6.8423 16.1785 7.15486C16.4911 7.46742 16.6667 7.89135 16.6667 8.33337V16.6667C16.6667 17.1087 16.4911 17.5327 16.1785 17.8452C15.866 18.1578 15.442 18.3334 15 18.3334H5.00001C4.07501 18.3334 3.33334 17.5834 3.33334 16.6667V8.33337C3.33334 7.40837 4.07501 6.66671 5.00001 6.66671H5.83334V5.00004C5.83334 3.89497 6.27233 2.83516 7.05373 2.05376C7.83513 1.27236 8.89494 0.833374 10 0.833374C10.5472 0.833374 11.089 0.941148 11.5945 1.15054C12.1 1.35994 12.5594 1.66685 12.9463 2.05376C13.3332 2.44067 13.6401 2.9 13.8495 3.40553C14.0589 3.91105 14.1667 4.45287 14.1667 5.00004V6.66671H15ZM10 2.50004C9.33697 2.50004 8.70108 2.76343 8.23224 3.23227C7.7634 3.70111 7.50001 4.337 7.50001 5.00004V6.66671H12.5V5.00004C12.5 4.337 12.2366 3.70111 11.7678 3.23227C11.2989 2.76343 10.6631 2.50004 10 2.50004Z" fill="#162737" fill-opacity="0.6"/>
</svg>
