<svg width="14" height="14" viewBox="0 0 14 14" fill="none" xmlns="http://www.w3.org/2000/svg">
<path d="M7.00001 12.8337C5.64862 12.4934 4.533 11.718 3.65314 10.5076C2.77327 9.2972 2.33334 7.9531 2.33334 6.47533V2.91699L7.00001 1.16699L11.6667 2.91699V6.47533C11.6667 7.9531 11.2267 9.2972 10.3469 10.5076C9.46702 11.718 8.3514 12.4934 7.00001 12.8337ZM7.00001 11.6087C8.01112 11.2878 8.84723 10.6462 9.50834 9.68366C10.1695 8.72116 10.5 7.65171 10.5 6.47533V3.71908L7.00001 2.40658L3.50001 3.71908V6.47533C3.50001 7.65171 3.83057 8.72116 4.49168 9.68366C5.15279 10.6462 5.9889 11.2878 7.00001 11.6087Z" fill="#212121"/>
</svg>
