<svg fill="none" height="51" viewBox="0 0 51 51" width="51" xmlns="http://www.w3.org/2000/svg">
    <path
        d="M26.9924 8.11656L29.3615 6.23279C29.667 5.9854 30.0288 5.81817 30.4143 5.74613C30.7999 5.67408 31.197 5.69946 31.5705 5.82C31.9438 5.94054 32.2815 6.15246 32.5536 6.43675C32.8255 6.72104 33.0232 7.06881 33.1286 7.4489L34.0291 10.5965C34.1722 11.1123 34.4838 11.5645 34.9136 11.8803C35.3434 12.196 35.8663 12.357 36.3982 12.3372H39.4545C39.8384 12.318 40.2211 12.393 40.5697 12.5559C40.9182 12.7187 41.2222 12.9645 41.4555 13.2719C41.6886 13.5794 41.844 13.9393 41.9082 14.3207C41.9724 14.702 41.9434 15.0934 41.8238 15.4609L40.6865 18.847C40.5245 19.3289 40.5199 19.8504 40.6732 20.3353C40.8268 20.82 41.1303 21.2427 41.5395 21.5415L44.3115 23.5684C44.6149 23.7894 44.862 24.0799 45.0322 24.4155C45.2026 24.7513 45.2913 25.1228 45.2913 25.4999C45.2913 25.8767 45.2026 26.2484 45.0322 26.5842C44.862 26.9199 44.6149 27.2103 44.3115 27.4313L41.5395 29.4582C41.1303 29.7569 40.8268 30.1796 40.6732 30.6644C40.5199 31.1492 40.5245 31.6707 40.6865 32.1528L41.8238 35.5388C41.9434 35.9063 41.9724 36.2978 41.9082 36.679C41.844 37.0605 41.6886 37.4203 41.4555 37.7278C41.2222 38.0353 40.9182 38.2809 40.5697 38.4438C40.2211 38.6067 39.8384 38.6817 39.4545 38.6626H36.3982C35.8663 38.6428 35.3434 38.8036 34.9136 39.1194C34.4838 39.4353 34.1722 39.8874 34.0291 40.4032L33.1286 43.5509C33.0232 43.9309 32.8255 44.2786 32.5536 44.563C32.2815 44.8474 31.9438 45.0592 31.5705 45.1796C31.197 45.3003 30.7999 45.3257 30.4143 45.2536C30.0288 45.1815 29.667 45.0142 29.3615 44.7669L26.9924 42.8832C26.5703 42.5384 26.0432 42.3505 25.4997 42.3505C24.9561 42.3505 24.429 42.5384 24.007 42.8832L21.6378 44.7669C21.3323 45.0142 20.9706 45.1815 20.585 45.2536C20.1995 45.3257 19.8023 45.3003 19.4289 45.1796C19.0555 45.0592 18.7177 44.8474 18.4458 44.563C18.1738 44.2786 17.9762 43.9309 17.8707 43.5509L16.9704 40.4032C16.8271 39.8874 16.5154 39.4353 16.0856 39.1194C15.6558 38.8036 15.1329 38.6428 14.6011 38.6626H11.5448C11.161 38.6817 10.7783 38.6067 10.4297 38.4438C10.0811 38.2809 9.77707 38.0353 9.54388 37.7278C9.31069 37.4203 9.15532 37.0605 9.09115 36.679C9.02699 36.2978 9.05597 35.9063 9.17557 35.5388L10.3128 32.1528C10.4749 31.6707 10.4795 31.1492 10.326 30.6644C10.1726 30.1796 9.86907 29.7569 9.45988 29.4582L6.68786 27.4313C6.38447 27.2103 6.13747 26.9199 5.96713 26.5842C5.79682 26.2484 5.70801 25.8767 5.70801 25.4999C5.70801 25.1228 5.79682 24.7513 5.96713 24.4155C6.13747 24.0799 6.38447 23.7894 6.68786 23.5684L9.45988 21.5415C9.86907 21.2427 10.1726 20.82 10.326 20.3353C10.4795 19.8504 10.4749 19.3289 10.3128 18.847L9.31772 15.3894C9.19811 15.0218 9.16913 14.6305 9.2333 14.2491C9.29747 13.8678 9.45286 13.5078 9.68605 13.2004C9.91924 12.8929 10.2232 12.6472 10.5718 12.4844C10.9204 12.3215 11.3031 12.2465 11.687 12.2657H14.7433C15.2751 12.2855 15.798 12.1245 16.2278 11.8087C16.6576 11.4929 16.9692 11.0407 17.1125 10.525L18.0129 7.37736C18.1443 7.02502 18.3568 6.70902 18.6328 6.45519C18.9089 6.20134 19.2408 6.01688 19.6013 5.91686C19.9618 5.81686 20.3407 5.80415 20.707 5.87977C21.0733 5.9554 21.4165 6.11723 21.7088 6.35202L24.0782 8.23579C24.5076 8.54588 25.0276 8.70258 25.5555 8.68098C26.0836 8.65938 26.5893 8.46071 26.9924 8.11656Z"
        stroke="#061840" stroke-linecap="round" stroke-linejoin="round" stroke-width="3.5" />
    <path
        d="M17.3867 25.2779L21.9535 29.8448C22.1142 30.0073 22.3054 30.1363 22.5164 30.2244C22.7273 30.3125 22.9535 30.3579 23.1821 30.3579C23.4106 30.3579 23.6371 30.3125 23.8479 30.2244C24.0587 30.1363 24.25 30.0073 24.4108 29.8448L33.6137 20.6416"
        stroke="#061840" stroke-linecap="round" stroke-linejoin="round" stroke-width="3.5" />
</svg>
